<?xml version="1.0" encoding="utf-8"?>
<svg viewBox="0 0 500 500" xmlns="http://www.w3.org/2000/svg">
  <g transform="matrix(9.941784858703613, 0, 0, 9.941784858703613, 168.02456665039062, -10144.9716796875)" style="">
    <g style="">
      <title>background</title>
      <path d="M -11.872 1020.438 C -14.649 1020.438 -16.901 1022.701 -16.901 1025.467 L -16.901 1065.701 C -16.901 1068.467 -14.649 1070.731 -11.872 1070.731 L 28.363 1070.731 C 31.14 1070.731 33.392 1068.467 33.392 1065.701 L 33.392 1025.467 C 33.392 1022.701 31.14 1020.438 28.363 1020.438 L -11.872 1020.438 Z" fill="#d35400" style=""/>
      <path d="M -11.872 1020.438 C -14.649 1020.438 -16.901 1022.599 -16.901 1025.265 L -16.901 1063.892 C -16.901 1066.558 -14.649 1068.719 -11.872 1068.719 L 28.362 1068.719 C 31.14 1068.719 33.392 1066.558 33.392 1063.892 L 33.392 1025.265 C 33.392 1022.599 31.14 1020.438 28.362 1020.438 L -11.872 1020.438 Z" fill="#e67e22" style=""/>
    </g>
    <g style="">
      <title>Font</title>
      <g transform="matrix(1, 0, 0, 1, 2.816392, 0)">
        <title>R</title>
        <path d="M 24.728 1068.774 L 18.485 1068.719 L 7.265 1049.861 C 7.167 1049.861 7.061 1049.869 6.946 1049.885 C 6.831 1049.902 6.659 1049.91 6.43 1049.91 C 6.201 1049.91 5.865 1049.91 5.423 1049.91 C 4.981 1049.91 4.4 1049.91 3.679 1049.91 L 3.679 1045.587 L 7.02 1045.587 C 7.74 1045.587 8.46 1045.464 9.181 1045.219 C 9.902 1044.973 10.557 1044.572 11.146 1044.015 C 11.735 1043.458 12.21 1042.681 12.57 1041.682 C 12.931 1040.683 13.111 1039.447 13.111 1037.973 C 13.111 1037.384 13.029 1036.704 12.865 1035.935 C 12.702 1035.165 12.366 1034.428 11.858 1033.724 C 11.351 1033.02 10.638 1032.431 9.721 1031.956 C 8.804 1031.481 7.593 1031.244 6.086 1031.244 L 6.185 1026.774 C 7.724 1026.774 9.246 1027.02 10.753 1027.511 C 12.26 1028.002 13.61 1028.738 14.805 1029.721 C 16 1030.704 16.967 1031.891 17.704 1033.282 C 18.441 1034.674 18.809 1036.238 18.809 1037.973 C 18.809 1040.593 18.203 1042.82 16.991 1044.654 C 15.78 1046.488 14.142 1047.847 12.079 1048.731 L 24.731 1068.719 L 24.728 1068.774 Z" style="text-transform: uppercase; fill: rgb(211, 84, 0);">
          <title>white</title>
        </path>
        <path d="M 25.734 1068.775 L 19.491 1068.72 L 8.271 1049.862 C 8.173 1049.862 8.067 1049.87 7.952 1049.886 C 7.837 1049.903 7.665 1049.911 7.436 1049.911 C 7.207 1049.911 6.871 1049.911 6.429 1049.911 C 5.987 1049.911 5.406 1049.911 4.685 1049.911 L 4.685 1045.588 L 8.026 1045.588 C 8.746 1045.588 9.466 1045.465 10.187 1045.22 C 10.908 1044.974 11.563 1044.573 12.152 1044.016 C 12.741 1043.459 13.216 1042.682 13.576 1041.683 C 13.937 1040.684 14.117 1039.448 14.117 1037.974 C 14.117 1037.385 14.035 1036.705 13.871 1035.936 C 13.708 1035.166 13.372 1034.429 12.864 1033.725 C 12.357 1033.021 11.644 1032.432 10.727 1031.957 C 9.81 1031.482 8.599 1031.245 7.092 1031.245 L -19.717 1031.242 L -19.717 1026.776 L 7.191 1026.775 C 8.73 1026.775 10.252 1027.021 11.759 1027.512 C 13.266 1028.003 14.616 1028.739 15.811 1029.722 C 17.006 1030.705 17.973 1031.892 18.71 1033.283 C 19.447 1034.675 19.815 1036.239 19.815 1037.974 C 19.815 1040.594 19.209 1042.821 17.997 1044.655 C 16.786 1046.489 15.148 1047.848 13.085 1048.732 L 25.737 1068.72 L 25.734 1068.775 Z" style="text-transform: uppercase; fill: rgb(255, 255, 255);">
          <title>white</title>
        </path>
      </g>
      <g transform="matrix(1, 0, 0, 1, 2.816392, -1.808975)">
        <title>I</title>
        <path d="M -5.635 1034.82 L 0.255 1034.82 L 0.259 1070.528 L -5.635 1070.528 L -5.635 1034.82 Z" style="text-transform: uppercase; fill: rgb(211, 84, 0);">
          <title>yellow</title>
        </path>
        <path d="M -4.629 1034.82 L 1.2610000000000001 1034.82 L 1.2650000000000001 1070.528 L -4.629 1070.528 L -4.629 1034.82 Z" style="text-transform: uppercase; fill: rgb(255, 255, 255);">
          <title>white</title>
        </path>
      </g>
    </g>
  </g>
</svg>